<svg width="37" height="20" viewBox="0 0 37 20" fill="none" xmlns="http://www.w3.org/2000/svg"><path d="M8.3 8.35c-2.5-.625-4.175-.975-4.175-2.925C4.125 4.1 5.4 3.3 7.525 3.3c2.475 0 3.775 1.1 4.05 3.175h2.975C14.3 2.8 11.45.75 7.525.75c-3.9 0-6.35 1.775-6.35 4.95 0 3.4 3.025 4.475 5.825 5.175 3.525.875 5.05 1.275 5.05 3.4 0 1.375-1.025 2.55-3.675 2.55-3.2 0-4.75-1.5-4.9-3.775H.5c.175 4.05 3.5 6.325 7.875 6.325 4.5 0 6.65-2.375 6.65-5.225 0-4-2.9-4.825-6.725-5.8zm22.52-2.725c0-2.875-2.125-4.5-5.8-4.5h-7.675V19h8.1c3.7 0 6.075-1.775 6.075-5.225 0-2.675-1.6-4.05-3.475-4.375v-.05c1.475-.5 2.775-1.525 2.775-3.725zm-10.5 2.9V3.65h4.775c1.775 0 2.75.875 2.75 2.45 0 1.575-.8 2.425-2.925 2.425h-4.6zm0 2.225h5.225c1.875 0 3 1.025 3 2.85 0 1.675-.775 2.875-3.325 2.875h-4.9V10.75zm14.458 8.45c.9 0 1.6-.625 1.6-1.625 0-.975-.7-1.625-1.6-1.625-.925 0-1.625.65-1.625 1.625 0 1 .7 1.625 1.625 1.625z" fill="#FDE3A7"/></svg>